<svg version="1.2" baseProfile="tiny" xmlns="http://www.w3.org/2000/svg" viewBox="0 0 100 100"><path d="M87.5 33h-1.01c-.693 0-1.391-.261-1.962-.736A62.029 62.029 0 0 0 45 18c-12.373 0-24.322 3.64-34.555 10.525C5.783 31.662 3 36.921 3 42.593v14.814c0 5.672 2.783 10.931 7.445 14.067C20.678 78.36 32.627 82 45 82a62.029 62.029 0 0 0 39.528-14.264C85.1 67.261 85.797 67 86.49 67h1.01c5.238 0 9.5-4.262 9.5-9.5v-15c0-5.238-4.262-9.5-9.5-9.5zM51.557 56.745l-1.567-5.846a12 12 0 0 0 1.952-1.129l4.28 4.28a17.995 17.995 0 0 1-4.665 2.695zM33.778 54.05l4.28-4.28c.611.435 1.263.813 1.952 1.129l-1.567 5.846a17.995 17.995 0 0 1-4.665-2.695zm-5.523-7.493l5.846-1.566c.316.688.694 1.34 1.129 1.951l-4.28 4.28c-1.12-1.4-2.03-2.97-2.695-4.665zm4.802-5.427l-5.833 1.563A17.985 17.985 0 0 1 27 40c0-.902.074-1.802.211-2.696l5.846 1.566c-.035.372-.057.749-.057 1.13s.022.758.057 1.13zM43.87 51.943c.373.035.749.057 1.13.057s.757-.022 1.13-.057l1.563 5.833c-.881.133-1.776.224-2.693.224s-1.812-.091-2.693-.224l1.563-5.833zM63 40c0 .917-.091 1.812-.224 2.693l-5.833-1.563c.035-.372.057-.749.057-1.13s-.022-.758-.057-1.13l5.846-1.566c.137.894.211 1.794.211 2.696zm-3.95 11.222l-4.28-4.28a11.99 11.99 0 0 0 1.129-1.951l5.846 1.566a17.967 17.967 0 0 1-2.695 4.665zm-3.151-16.213a11.974 11.974 0 0 0-1.181-2.021 47.34 47.34 0 0 1 4.449 1.146l-3.268.875zM53 40c0 4.411-3.589 8-8 8s-8-3.589-8-8 3.589-8 8-8 8 3.589 8 8zm-18.899-4.991l-3.292-.882a47.492 47.492 0 0 1 4.471-1.136c-.456.63-.851 1.305-1.179 2.018zM23.748 45.682l.002.011.004.008a21.998 21.998 0 0 0 5.604 9.749c.03.034.053.072.086.105.033.033.07.056.105.086a21.997 21.997 0 0 0 9.741 5.602c.006.002.01.005.016.006l.01.001a21.893 21.893 0 0 0 11.368.001l.01-.001.016-.006a22 22 0 0 0 9.741-5.602c.034-.03.072-.053.105-.086.033-.033.056-.071.086-.105a22.007 22.007 0 0 0 5.604-9.749l.004-.008.002-.011A21.97 21.97 0 0 0 67 40c0-.924-.076-1.844-.193-2.761a48.177 48.177 0 0 1 6.403 3.945c2.977 2.169 6.46 3.316 10.074 3.316h3.901c3.116 0 5.724 2.391 5.812 5.33a5.46 5.46 0 0 1-1.55 4A5.456 5.456 0 0 1 87.5 55.5h-4.216c-3.614 0-7.098 1.146-10.074 3.316C64.966 64.824 55.211 68 45 68c-14.731 0-28.301-6.54-37.47-18a47.903 47.903 0 0 1 15.667-12.791A21.72 21.72 0 0 0 23 40c0 1.965.263 3.869.748 5.682zm-11.07-13.838C22.249 25.404 33.426 22 45 22a58.018 58.018 0 0 1 36.974 13.342C83.262 36.411 84.865 37 86.49 37h1.01a5.503 5.503 0 0 1 5.494 5.383 9.942 9.942 0 0 0-5.809-1.883h-3.901c-2.762 0-5.431-.881-7.719-2.548C66.633 31.441 56.062 28 45 28c-14.628 0-28.19 5.963-38 16.515v-1.922c0-4.339 2.123-8.357 5.678-10.749zM87.5 63h-1.01c-1.625 0-3.229.589-4.517 1.658A58.013 58.013 0 0 1 45 78c-11.574 0-22.751-3.404-32.322-9.844C9.123 65.764 7 61.746 7 57.407v-1.922C16.81 66.037 30.372 72 45 72c11.062 0 21.633-3.441 30.565-9.952 2.288-1.667 4.957-2.548 7.719-2.548H87.5c2 0 3.895-.616 5.487-1.75C92.855 60.667 90.448 63 87.5 63zm-9.62-10.88c-.561-.56-.88-1.33-.88-2.12s.319-1.56.88-2.12c1.12-1.12 3.12-1.12 4.24 0 .56.56.88 1.33.88 2.12s-.32 1.56-.88 2.12S80.79 53 80 53s-1.561-.32-2.12-.88z"/></svg>