<svg version="1.2" baseProfile="tiny" xmlns="http://www.w3.org/2000/svg" viewBox="0 0 100 100"><path d="M50 3C24.433 3 3.583 23.524 3.026 48.96c-.013.275-.018.552-.021.829 0 .071-.005.14-.005.211l.001.051c.001.29.01.581.022.872C3.519 76.413 24.394 97 50 97c25.916 0 47-21.084 47-47S75.916 3 50 3zM18.44 33.245l1.568 5.853a11.95 11.95 0 0 0-1.956 1.126l-4.28-4.28a17.844 17.844 0 0 1 4.668-2.699zm17.781 2.706l-4.27 4.27a12.145 12.145 0 0 0-.951-.613c-.329-.19-.665-.361-1.006-.517l1.562-5.831a18.085 18.085 0 0 1 4.665 2.691zm5.528 7.491l-5.847 1.567a11.95 11.95 0 0 0-1.126-1.956l4.284-4.284a17.812 17.812 0 0 1 2.689 4.673zM31.56 66.755l-1.568-5.853a11.95 11.95 0 0 0 1.956-1.126l4.28 4.28a17.844 17.844 0 0 1-4.668 2.699zm-17.776-2.711l4.264-4.264c.306.217.622.423.951.613.329.19.671.343 1.011.499l-1.565 5.843a18.166 18.166 0 0 1-4.661-2.691zm1.436-20.995c-.217.306-.423.622-.613.951-.19.329-.361.665-.517 1.006l-5.825-1.561c.66-1.68 1.567-3.25 2.691-4.661l4.264 4.265zm7.709-.777a7.917 7.917 0 0 1 4.121-.008l.021.008.014.002c.662.18 1.306.445 1.916.797a7.948 7.948 0 0 1 3.728 4.857c.553 2.064.269 4.22-.799 6.071s-2.793 3.174-4.857 3.728a7.941 7.941 0 0 1-6.071-.799 7.948 7.948 0 0 1-3.728-4.857c-.553-2.064-.269-4.22.799-6.071s2.792-3.174 4.856-3.728zm19.861 5.031a17.816 17.816 0 0 1-.004 5.392l-5.847-1.566c.07-.748.071-1.502-.002-2.258l5.853-1.568zM10.944 61.228a17.844 17.844 0 0 1-2.699-4.668l5.853-1.568c.314.69.692 1.343 1.126 1.956l-4.28 4.28zm2.119-10.1L7.21 52.697a17.961 17.961 0 0 1-.196-3.254l.006-.243c.029-.638.097-1.269.193-1.895l5.847 1.566c-.07.748-.07 1.502.003 2.257zm10.81 10.805c.368.035.737.073 1.108.073.381 0 .764-.039 1.146-.076l1.57 5.86a17.849 17.849 0 0 1-5.392-.004l1.568-5.853zm15.171-.717l-4.264-4.264c.217-.306.423-.622.613-.951.19-.329.361-.665.517-1.006l5.825 1.561a18.148 18.148 0 0 1-2.691 4.66zM26.129 38.06a11.912 11.912 0 0 0-2.258.002l-1.568-5.852a17.926 17.926 0 0 1 2.692-.213c.911 0 1.812.078 2.7.214l-1.566 5.849zM50 93c-17.957 0-33.37-11.068-39.797-26.738a22.161 22.161 0 0 0 8.907 4.914c.065.025.127.056.196.074.034.009.067.006.101.013 1.808.479 3.686.739 5.598.739 1.879 0 3.79-.243 5.689-.752a21.852 21.852 0 0 0 9.778-5.625c.027-.025.058-.043.085-.069.026-.026.044-.056.068-.083a22.162 22.162 0 0 0 5.6-9.722c.006-.021.021-.037.026-.058.01-.035.01-.071.017-.106a21.862 21.862 0 0 0-.017-11.282 21.866 21.866 0 0 0-5.628-9.782c-.023-.026-.041-.055-.066-.08-.024-.024-.053-.041-.078-.064a22.16 22.16 0 0 0-9.699-5.598c-.029-.009-.055-.024-.085-.032-.031-.008-.062-.009-.094-.016a21.843 21.843 0 0 0-11.294.016 21.867 21.867 0 0 0-9.1 4.979C16.635 18.064 32.046 7 50 7c23.71 0 43 19.29 43 43S73.71 93 50 93zm38-43c0 .79-.32 1.56-.88 2.12S85.79 53 85 53s-1.56-.32-2.12-.88S82 50.79 82 50s.32-1.56.88-2.12c1.12-1.12 3.12-1.12 4.24 0 .56.56.88 1.33.88 2.12z"/></svg>