<svg version="1.2" baseProfile="tiny" xmlns="http://www.w3.org/2000/svg" viewBox="0 0 100 100"><path d="M55 63c-1.958 0-3.728.81-5 2.11A6.977 6.977 0 0 0 45 63c-3.86 0-7 3.14-7 7 0 3.991 5.159 7 12 7s12-3.009 12-7c0-3.86-3.14-7-7-7zm-5 10c-4.963 0-8-1.942-8-3 0-1.654 1.346-3 3-3s3 1.346 3 3a2 2 0 0 0 4 0c0-1.654 1.346-3 3-3s3 1.346 3 3c0 1.058-3.037 3-8 3zm24.62-20.12c.56.56.88 1.33.88 2.12s-.32 1.56-.88 2.12-1.33.88-2.12.88-1.56-.32-2.12-.88-.88-1.33-.88-2.12.32-1.56.88-2.12c1.12-1.12 3.13-1.12 4.24 0zm-45 0c.56.56.88 1.33.88 2.12s-.32 1.56-.88 2.12-1.33.88-2.12.88-1.56-.32-2.12-.88-.88-1.33-.88-2.12.32-1.56.88-2.12c1.11-1.12 3.13-1.12 4.24 0zM77 30a2 2 0 0 1-2 2H55.275l6.623 19.868c.012.036.015.072.024.108.018.067.035.134.046.204.011.07.017.14.021.21.002.038.011.073.011.11 0 .042-.005.082-.006.123l-.003.051C61.897 56.453 58.801 59.5 55 59.5a6.977 6.977 0 0 1-5-2.11 6.977 6.977 0 0 1-5 2.11c-3.86 0-7-3.14-7-7a2 2 0 0 1 4 0c0 1.654 1.346 3 3 3s3-1.346 3-3a2 2 0 0 1 4 0c0 1.654 1.346 3 3 3a2.994 2.994 0 0 0 2.975-2.751l-7.372-22.117c-.012-.036-.015-.072-.024-.108a1.948 1.948 0 0 1-.046-.204 2.133 2.133 0 0 1-.021-.21c-.003-.038-.012-.073-.012-.11 0-.025.006-.048.007-.072.003-.073.011-.144.022-.216.009-.061.018-.122.032-.181.015-.063.036-.124.058-.185.022-.062.043-.124.071-.183.026-.057.057-.11.089-.164.033-.057.065-.113.104-.166.038-.052.08-.1.122-.148.042-.047.083-.095.129-.138.047-.044.098-.084.15-.124.052-.04.103-.079.159-.114a2.268 2.268 0 0 1 .359-.177c.023-.009.043-.022.067-.03.036-.012.072-.015.108-.024.067-.018.134-.035.204-.046.07-.011.139-.017.209-.021.036-.002.072-.011.11-.011H75a2 2 0 0 1 2 2zM50 3C29.598 3 13 19.598 13 40v15.31c0 21.146 15.8 39.062 36.752 41.675.079.01.158.014.236.014l.009.001h.004l.009-.001c.078-.001.157-.005.236-.014C71.2 94.372 87 76.456 87 55.31V40C87 19.598 70.402 3 50 3zm0 89.978c-18.83-2.474-33-18.62-33-37.669V40C17 21.804 31.804 7 50 7s33 14.804 33 33v15.31c0 19.048-14.17 35.195-33 37.668zM39.5 37.5c0 3.86-3.14 7-7 7s-7-3.14-7-7a2 2 0 0 1 4 0c0 1.654 1.346 3 3 3s3-1.346 3-3a2 2 0 0 1 4 0zm28 7c-3.86 0-7-3.14-7-7a2 2 0 0 1 4 0c0 1.654 1.346 3 3 3s3-1.346 3-3a2 2 0 0 1 4 0c0 3.86-3.14 7-7 7zm-13 38a2 2 0 0 1-2 2h-5a2 2 0 0 1 0-4h5a2 2 0 0 1 2 2z"/></svg>