<svg version="1.2" baseProfile="tiny" xmlns="http://www.w3.org/2000/svg" viewBox="0 0 100 100"><path d="M90.271 36.437a21.918 21.918 0 0 0-4.714-6.993L62.627 6.515A11.917 11.917 0 0 0 54.142 3a11.919 11.919 0 0 0-8.485 3.515L35.05 17.122a11.919 11.919 0 0 0-3.515 8.485 11.92 11.92 0 0 0 3.515 8.486l1.706 1.705a7.948 7.948 0 0 1 2.343 5.657 7.948 7.948 0 0 1-2.343 5.657L5.551 78.317l-.006.007a2.06 2.06 0 0 0-.206.252c-.014.02-.033.038-.046.058a2.128 2.128 0 0 0-.218.468c-.027.081-.057.162-.073.247l-.001.011a2.014 2.014 0 0 0-.015.586c.006.057.006.114.017.17.008.039.024.077.034.116.023.09.046.18.082.266l.004.012c1.359 3.215 3.306 6.103 5.786 8.582s5.367 4.426 8.582 5.785C22.82 96.286 26.356 97 30 97s7.18-.714 10.51-2.123c3.215-1.359 6.103-3.306 8.582-5.786s4.426-5.367 5.786-8.582l.004-.013c.001-.003.004-.005.005-.009l.609-1.491a13.086 13.086 0 0 1 7.06-7.096l15.995-6.625.005-.003.009-.003a21.919 21.919 0 0 0 6.992-4.714 21.914 21.914 0 0 0 4.714-6.992C91.418 50.851 92 47.969 92 45s-.582-5.851-1.729-8.563zM59.799 9.343c1.511 1.511 2.343 3.521 2.343 5.657s-.832 4.146-2.343 5.657l-.002.003-10.605 10.604a7.948 7.948 0 0 1-5.657 2.343 7.951 7.951 0 0 1-5.652-2.338l-.005-.005-.002-.001a7.947 7.947 0 0 1-2.341-5.655c0-2.137.832-4.146 2.343-5.657L48.485 9.343A7.95 7.95 0 0 1 54.142 7c2.137 0 4.146.832 5.657 2.343zm26.787 42.663c-.906 2.142-2.204 4.067-3.858 5.722s-3.58 2.952-5.722 3.858l-.002.001-15.979 6.618a17.107 17.107 0 0 0-9.232 9.279l-.602 1.472a22.916 22.916 0 0 1-4.927 7.307 22.935 22.935 0 0 1-7.312 4.93c-3.32 1.404-6.947 1.962-10.522 1.721l7.785-7.785a2 2 0 1 0-2.828-2.828l-9.778 9.778a22.386 22.386 0 0 1-2.56-.887c-.348-.147-.677-.325-1.015-.488l8.711-8.711a2 2 0 1 0-2.828-2.828l-9.423 9.424a23.157 23.157 0 0 1-2.687-2.263l9.269-9.268a2 2 0 1 0-2.828-2.828l-9.024 9.024a22.787 22.787 0 0 1-1.841-3.11l30.205-30.205c3.345-3.345 4.285-8.186 2.847-12.387a11.919 11.919 0 0 0 9.589-3.461l10.605-10.604.003-.002a11.903 11.903 0 0 0 3.482-7.832l16.618 16.618a17.938 17.938 0 0 1 3.858 5.723C87.524 40.212 88 42.569 88 45s-.476 4.788-1.414 7.006zm-9.868-13.723C78.512 40.076 79.5 42.462 79.5 45s-.988 4.924-2.783 6.718c-.391.39-.902.585-1.414.585a2 2 0 0 1-1.415-3.415C74.928 47.851 75.5 46.469 75.5 45s-.572-2.851-1.611-3.889A5.462 5.462 0 0 0 70 39.5a2 2 0 0 1 0-4c2.538 0 4.924.988 6.718 2.783zM52.02 16.79c-.56-.56-.88-1.33-.88-2.12s.32-1.57.88-2.12c1.12-1.12 3.13-1.12 4.24 0 .56.55.88 1.33.88 2.12s-.32 1.56-.88 2.12-1.33.88-2.12.88-1.56-.32-2.12-.88zm-6.36 6.36c.56.56.88 1.33.88 2.12s-.32 1.56-.88 2.13c-.56.55-1.33.87-2.12.87-.8 0-1.57-.32-2.13-.87-.55-.56-.87-1.34-.87-2.13s.32-1.56.87-2.12c1.12-1.12 3.13-1.12 4.25 0z"/></svg>