<svg version="1.2" baseProfile="tiny" xmlns="http://www.w3.org/2000/svg" viewBox="0 0 384 240"><path d="M353.854 32.294c-9.007-9.853-19.956-18.124-32.305-23.302-14.394-6.035-30.025-7.052-45.444-6.024-12.516.835-24.983 3.314-37.554 2.946-7.563-.221-15.141.049-22.7.278-20.668.628-41.333 1.68-62.013 1.867-8.128.073-15.962-.533-24.05-1.18-15.71-1.256-31.583-.44-47.011 2.843-13.187 2.806-27.084 6.906-38.003 15.098-9.193 6.897-16.518 15.918-22.624 25.587-4.571 7.237-8.497 14.967-11.711 22.903-2.115 5.222-3.04 10.281-3.459 15.855-.362 4.821-1.874 9.383-2.263 14.195-.802 9.9-.55 20.648 1.038 30.47.943 5.83 4.725 4.283 9.173 6.061 5.811 2.323 3.577 6.851 3.581 11.836.004 4.935 2.194 8.411 6.09 11.114-.515 2.2-.749 4.498-.977 6.687-.461 4.44-.517 8.949-.309 13.408.01.204.037.734.066 1.236-.197.717-.246 1.398-.095 1.909l-.112.692a718.955 718.955 0 0 0-2.493 15.198 4.114 4.114 0 0 0-1.549 1.679c-2.845 5.586-8.708 8.93-9.859 15.568-1.04 5.998 3.12 10.519 8.263 12.816 6.165 2.755 13.454 3.086 20.069 2.275 6.434-.789 12.755-.285 19.204.227 7.229.575 14.64 1.439 21.887.699 6.894-.704 12.78-.73 19.701.439 6.372 1.076 13.165 2.79 19.658 1.966 5.625-.714 10.878-2.569 16.654-2.977 11.284-.797 22.516-.269 33.797.078 12.62.388 25.333.215 37.923 1.244 13.367 1.093 26.535-1.704 39.844-2.815 10.605-.886 21.252-1.55 31.466-4.808 13.779-4.394 24.386-12.926 28.575-27.079 1.979-6.686 3.143-13.559 3.736-20.505 17.513.127 37.39-4.325 50.981-15.201 7.985-6.39 11.712-14.903 14.246-24.595 3.211-12.282 4.371-25.205 4.258-37.874-.236-26.52-7.528-50.958-25.679-70.814zM30.235 158.182l5.001 8.647c-.776 4.59-1.118 9.419-1.407 14.148-2.212-.131-4.432-.24-6.667-.314-.01-2.361-.191-4.723-.133-7.136.062-2.589.228-5.187.563-7.756.173-1.329.383-2.671.691-3.977.408-.622.725-1.333.867-2.011.342-.54.711-1.073 1.085-1.601zm13.604 1.347l2.69 7.251c-.413 2.377-.049 5.176-.077 7.505-.031 2.564-.048 5.129-.08 7.694a354.417 354.417 0 0 0-8.074-.712c.536-5.01 1.897-10.512 1.509-15.408.765-.967 1.403-2.324 2.022-3.266l2.01-3.064zm13.621-.374l4.272 8.229c-1.009 4.542-1.22 9.444-1.575 14.188-2.682.036-5.401.249-8.063.378.04-2.475.051-4.953.08-7.427.015-1.279.779-6.024.405-8.073.946-1.272 1.773-2.665 2.654-3.978l2.227-3.317zm26.474 2.275l1.558-2.556 3.46 6.133c-1.195 6.287-.526 13.511-.7 19.949a338.174 338.174 0 0 0-8.518-.125c.025-.382.065-.762.083-1.145.05-1.089.321-10.904.583-15.506.174-.265.327-.539.452-.825.786-.569 1.596-1.419.409-1.536l-.041.067c.001-.024.008-.049.009-.073.013.001.019.005.032.006a8461.73 8461.73 0 0 1 2.673-4.389zm15.663-4.421l4.767 7.667c.014.023.033.035.048.057-.019.135-.048.268-.062.404-.72 6.83-1.397 13.664-2.088 20.497-2.844-.2-5.676-.367-8.498-.49.045-.511.086-1.023.104-1.54l.397-11.363c.088-2.524.813-5.992.371-8.557.776-.894 1.459-2.137 2.086-2.949l2.875-3.726zm24.173 2l3.469 7.73c-.016.129-.044.257-.053.386-.403 5.75.129 11.78.479 17.638-2.736-.556-5.534-1.106-8.177-1.136.259-6.772.254-13.563.33-20.34l3.952-4.278zm13.714-.099l4.514 5.006c-.042.981.021 1.985.039 3.051.099 5.991.258 11.985.323 17.977a877.87 877.87 0 0 0-9.329-.056c-.073-6.693-.397-13.395-.63-20.083l5.083-5.895zm24.469-1.329l3.379 4.015c-.032.984.05 1.99.053 2.916l.073 22.325c-2.148-.356-4.601-.87-6.619-1.227-.422-8.245-.321-16.558-.433-24.819l3.547-3.21zm10.066 1.646l5.201 5.104c-.001.021-.006.041-.007.062-.283 7.147.627 14.539.969 21.695-2.561.466-5.158.946-7.696 1.101-.057-8.991-.065-17.983-.09-26.974l1.623-.988zm14.624-1.505l3.545 6.729a10.648 10.648 0 0 0-.285 1.982c-.276 5.785-.57 11.569-.834 17.355-1.922.387-3.858.953-5.737 1.455-.084-7.582-.7-15.209-1.086-22.785l4.397-4.736zm10.605 1.503l3.565 4.82c-.051 1.434.131 2.952.142 4.301.044 5.261.187 10.535.197 15.801-2.318-.346-4.669-.704-6.959-.791.237-7.226.677-14.452 1.036-21.673l2.019-2.458zm20.193-2.295l3.337 3.548a9 9 0 0 0-.026.845c.198 6.945.438 13.892.597 20.839a340.55 340.55 0 0 0-4.996.593c.098-7.266-.746-14.709-1.225-21.987a5.154 5.154 0 0 0 .583-1.774l1.73-2.064zm13.115-.786l4.717 3.612c-.235 1.5-.275 3.092-.447 4.476-.759 6.113-1.495 12.229-2.269 18.341l-2.039-.242-3.976-.472c.126-7.332-.456-14.775-.736-22.108 1.582-1.203 3.166-2.405 4.75-3.607zm20.738 1.01l3.006 3.571c-.149 7.409-.318 14.819-.443 22.229a198.69 198.69 0 0 0-6.006.712c.181-8.027.513-16.054.787-24.079.886-.81 1.771-1.622 2.656-2.433zm8.912.226c1.827 3.219 4.692 7.555 5.623 10.506.023.194.068.375.146.531.062.254.112.499.136.726.444 4.176.06 8.6-.221 12.929-2.649.12-5.271.272-7.872.485.112-7.704.289-15.407.451-23.11.154-.327.272-.674.366-1.026l1.371-1.041zm26.735-1.852c1.007 15.955 3.614 42.578-17.042 43.099.46-5.156-.089-10.591-.007-15.745.072-4.523.651-9.286.634-13.899 3.143-.543 5.786-2.309 8.121-4.845 2.81-3.053 4.55-7.058 8.294-8.61zm-23.137 51.633l-1.13 2.62-2.008-3.94c-.708-1.389-1.428-2.773-2.124-4.168a3.035 3.035 0 0 0-.702-1.521c-.629-3.622-.324-7.76-.065-11.713 2.6-.188 5.218-.336 7.882-.434-.02 1.85-.021 3.701-.032 5.552-.014 2.237-.654 5.765-.355 8.357-.144.645-.159 1.284-.023 1.829-.525 1.115-.96 2.297-1.443 3.418zm-25.616 5.29c-1.233-1.791-2.452-3.629-3.859-5.245a8.54 8.54 0 0 1-.636-.835c.069-.771.256-1.569.364-2.319.677-4.672 1.37-9.343 2.04-14.016 2.009.135 4.027.25 6.055.344-.027 3.041-.021 6.082-.03 9.123-.008 2.628-.455 5.729-.073 8.371l-3.861 4.577zm-8.829-7.111c-.086.596-.204 1.194-.312 1.791l-2.697 2.829c-.593-1.695-1.202-3.415-2.065-4.886l-.051-.082c.232-1.001.232-2.128.344-3.147.46-4.194 1.125-8.436 1.546-12.666 1.836.193 3.668.366 5.496.52-.717 5.218-1.505 10.428-2.261 15.641zm-13.154 1.868l-1.348-2.048c-.17-.259-.363-.517-.547-.78a2.349 2.349 0 0 0-.546-1.146c.042-1.757.614-3.759.832-5.414.358-2.721.882-5.5 1.263-8.273 1.792-.219 3.59-.425 5.393-.616-.307 4.034-.99 8.083-1.426 12.062-.153 1.396-.436 2.867-.557 4.322l-3.064 1.893zm-30.034 2.529l-2.456-3.778c-.166-.256-.782-1.331-1.148-1.833.026-.486-.002-1.292.011-1.553.187-3.697.501-7.42.664-11.133l2.95-.663 2.623-.59c-.104 3.981-.11 7.966-.169 11.947-.012.777.033 1.524.102 2.26l-2.577 5.343zm-11.856.185c-1.253-1.47-2.604-3-3.369-4.603-.251-.526-.03.272-.197-1.014-.156-1.202-.042-2.509-.062-3.72-.037-2.222-.08-4.444-.118-6.667 2.563-.331 5.162-.891 7.675-1.311-.084 3.307-.3 6.609-.468 9.935-.064 1.26-.235 2.539-.248 3.789l-3.213 3.591zm-10.433.88l-1.864-3.514c-1.34-2.525-1.279-1.898-1.52-4.315-.325-3.251-.723-6.511-1.061-9.772 2.033.426 4.089.819 6.08.946.029 2.321.065 4.642.104 6.964.032 1.909-.345 4.493-.085 6.636l-1.654 3.055zm-12.52-.016c-1.048-1.761-2.105-3.546-3.359-5.092a7.72 7.72 0 0 1-.466-.658c.19-1.233.092-2.606.137-3.845.11-3.005.262-6.016.37-9.026 1.896.048 3.794.109 5.693.179.276 3.663.711 7.314 1.077 10.973.104 1.043.163 2.075.277 3.089l-3.729 4.38zm-9.492-6.41c-.041 1.116-.104 2.041-.042 2.93l-4.223 5.655-2.493-3.992c-.658-1.054-1.264-2.248-2.022-3.237-.074-.097-.133-.142-.181-.155.005-.049.01-.091.014-.148.354-4.429.211-8.973.155-13.459 3.094.01 6.184.031 9.272.079-.092 4.111-.329 8.224-.48 12.327zm-17.462 7.346l-2.574-4.259c-.835-1.381-1.639-2.786-2.506-4.147-.274-.43-.887-1.74-.753-1.125-.411-1.888.233-4.541.332-6.457l.317-6.175c2.899.364 5.862 1.065 8.684 1.541-.007.671-.017 1.341-.022 2.011l-.104 12.756c-.006.781-.022 1.452.01 2.082l-3.384 3.773zm-15.584-.307l-2.403-4.117c-.736-1.261-1.409-2.599-2.224-3.81a24.895 24.895 0 0 1-.336-.513c.651-1.672 1.029-5.954 1.217-6.82.355-1.634.762-3.272 1.121-4.916l3.452-.704c1.218-.248 3.782-.829 5.184-1.086-.164 4.847-.485 9.694-.739 14.536l-5.272 7.43zm-14.017-3.043a8923.21 8923.21 0 0 0-3.142-5.186c-.58-.958-1.201-2.808-1.437-2.347.17-.816.516-1.708.688-2.409.56-2.279 1.188-4.525 1.725-6.783 2.879.143 5.769.321 8.679.545l-.054.254c-.806 3.713-1.775 7.432-2.433 11.175-1.34 1.583-2.683 3.167-4.026 4.751zm-9.72-6.918l-.067.284-6.026 5.947-.293-.637c-.161-.351-.492-1.283-.81-2.041a3.242 3.242 0 0 0-.675-2.159c.226-1.857.753-3.82.997-5.515.293-2.035.597-4.056.868-6.079 2.829.024 5.644.079 8.445.173-.646 3.357-1.611 6.655-2.439 10.027zm-42.332 6.699a18022.04 18022.04 0 0 0-3.667-5.648c-.172-.264-.99-1.82-1.534-2.589l.022-.675c.133-3.837.192-7.69.337-11.534 2.756.221 5.519.476 8.294.76-.198 4.766-.552 9.532-.818 14.291-.048.854-.028 1.667.037 2.455-.889.982-1.78 1.961-2.671 2.94zm-15.419-.077c-.696-1.212-1.381-2.44-2.125-3.621.302-1.273-.189-2.189-1.034-2.667.019-.188.038-.369.064-.531l2.322-14.229c2.306.09 4.601.211 6.886.36a317.298 317.298 0 0 0-.473 14.616c-1.878 2.024-3.759 4.048-5.64 6.072zm9.897-8.536l-.027-.024a.146.146 0 0 1 .027.024zm16.031 9.373c-.632-1.614-1.304-3.218-2.172-4.614a6.283 6.283 0 0 0-.151-.23c.01-.018.02-.029.029-.05.4-.885.159-2.848.212-3.788.212-3.795.483-7.596.679-11.396 2.51-.143 5.129-.313 7.463-.307l-.189 1.167-1.758 10.878c-.177 1.098-.425 2.153-.49 3.195l-3.623 5.145zm13.306-2.114l-2.843-4.429c.718-4.373 1.47-8.742 2.133-13.124 2.624.529 5.484 1.263 8.113 1.86-.384 2.718-.785 5.433-1.176 8.15-.171 1.185-.512 2.533-.751 3.871l-5.476 3.672zm80.948-1.555c.167.554-.032.473 0 0zm48.865 3.771c-1.161-3.101-2.469-6.376-2.477-8.649-.012-3.487.043-6.982.117-10.476 2.288.209 4.604.598 6.871.91l-.359 2.916c-.449 3.646-1.049 7.308-1.351 10.969-.031.38-.041.762-.04 1.145-.92 1.063-1.84 2.124-2.761 3.185zm10.019 1.005l-.852-3.14c-.322-1.188-.591-2.407-.971-3.578.64 1.978.078 1.013.29-.707.48-3.895 1.158-7.836 1.586-11.771 1.787-.267 3.573-.522 5.358-.762-.259 2.83-.737 5.643-1.113 8.499-.233 1.77-.765 3.829-1.019 5.794-.036.058-.075.103-.11.164a6018.571 6018.571 0 0 1-3.169 5.501zm42.408-2.725l-.05-.073c-.612-.901-1.03-2.106-1.103-1.809-.096-1.863.086-3.825.091-5.649.011-3.45.001-6.902.022-10.352a196.06 196.06 0 0 1 5.989-.647c-.033 2.925-.05 5.85-.075 8.775-.009 1.077-.133 2.3-.202 3.521l-4.672 6.234zm-6.834-48.769l1.066 1.451c-.033.7-.035 1.419-.059 2.168l-.678 21.048-1.655-.065-3.575-.14c1.044-7.86 1.968-15.738 2.929-23.609l1.972-.853zm-30.085 24.822c-1.667.232-3.336.477-5.006.733.105-5.234-.183-10.524-.227-15.743-.011-1.372.619-5.105.167-6.835.069-.163.136-.317.206-.449l.311-.588 3.535 2.39c-.003.205-.011.407 0 .618l1.014 19.874zm-58.453 1.825c-1.76-.054-3.52-.099-5.278-.135-.025-6.161-.216-12.327-.318-18.486-.021-1.284.077-2.647-.055-3.93.525-.635 1.221-1.642 1.896-2.663l3.421 2.989c-.045.395-.072.8-.064 1.225l.398 21zm-5.656-22.623c-.003-.031-.003-.063-.007-.095-.277-2.307.188-.906.007.095zm-.028.113c-.095.392-.302.693-.724.622.13.022.392-.224.724-.622zm-35.069-4.4l2.39 7.127c.057.171.129.306.204.436-.019.158-.049.314-.058.474-.35 5.897-.223 11.844-.269 17.764-2.619.487-5.283 1.269-7.832 1.882 1.1-7.713 1.549-15.595 2.286-23.35.036-.065.07-.129.104-.194 1.057-1.38 2.116-2.759 3.175-4.139zm-40.992 4.369l.221-.316 3.03 6.811c.044.099.102.168.151.255-.041 1.142 0 2.298-.047 3.332l-.503 10.994c-2.554-.62-5.135-1.263-7.704-1.677.083-.701.168-1.403.243-2.105l.963-9.057c.106-1.001.316-2.061.369-3.086 1.156-1.456 2.893-4.602 3.277-5.151zm-4.123 5.89c.09-.001.207-.075.34-.19-.094.116-.206.189-.34.19zm-15.378-1.548c-.415.861-1.105 1.467 0 0zm-23.926-5.155c-.105.332-.317.593-.333.453.117-.144.228-.294.333-.453zm273.892 30.923c-1.401 6.868-3.097 14.063-8.014 19.328-3.91 4.186-9.19 7-14.527 8.922-9.384 3.378-19.329 4.361-29.205 5.091-12.999.961-26.652 4.565-39.691 3.32-10.347-.988-20.778-1.035-31.166-1.289-10.048-.246-20.097-.853-30.149-.789-6.205.039-12.432.231-18.599.952-4.803.562-9.595 2.661-14.38 2.672-6.655.014-13.267-1.714-19.82-2.68-6.175-.911-11.434-.333-17.535.181-13.768 1.161-27.432-2.428-41.209-.875-6.264.706-17.044.666-21.208-5.11-2.901-4.025 1.471-8.703 4.994-12.747.937 1.716 2.188 3.354 3.204 5.054.403.674 1.402.148 1.764-.241l7.356-7.916c1.454 3.199 4.169 6.21 5.937 8.933.7 1.079 2.181-.101 2.699-.67l4.011-4.411c.834 2.322 1.977 4.592 3.1 7.149.981 2.234 3.574.761 4.504-.559l5.064-7.192c.933 1.375 1.943 2.718 2.798 4.05 1.105 1.722 3.19 1.289 4.635.321l6.347-4.256c.69 1.395 1.513 2.762 2.082 4 .828 1.8 2.66 1.552 3.948.281l6.855-6.765 4.92 8.121c1.118 1.846 3.484-.108 4.349-1.127l4.489-5.295c1.506 3.451 4.337 6.861 5.969 9.658 1.074 1.841 3.396-.709 3.98-1.531l5.569-7.848c1.465 3.132 3.984 6.101 5.629 8.823.758 1.254 2.408-.43 2.935-1.018l5.144-5.734c1.644 2.857 3.514 5.607 5.26 8.403 1.047 1.677 3.268-.208 3.993-1.18l5.309-7.11c1.367 2.287 2.978 4.482 4.411 6.706.925 1.436 3.097.583 3.96-.431l5.032-5.913c1.164 2.309 2.546 4.557 3.745 6.816 1.136 2.141 4.023-.675 4.643-1.82l2.517-4.648c1.064 1.298 2.288 2.555 3.142 3.687 1.151 1.526 2.954-.111 3.83-1.091l3.836-4.289c1.359 2.562 3.441 5.016 4.989 7.398 1.13 1.739 3.478-.958 3.92-1.876l2.633-5.458c.563 1.735 1.217 3.482 1.855 5.339.631 1.839 3.423-.932 3.853-1.428l3.826-4.411c.689 3.068 1.876 6.136 2.659 9.023.731 2.695 3.955.703 4.798-.759l4.247-7.371c.512.721 1.055 1.424 1.518 2.128.463.703 1.223.299 1.764-.034l5.16-3.188c.803 2.425 2.102 4.84 3.039 7.163.623 1.546 2.529.987 3.404.069l3.831-4.019c1.358 2.117 3.386 4.205 4.745 6.073.913 1.254 2.574-.024 3.27-.849l5.613-6.653c.718 1.057 1.539 2.067 2.218 3.065 1.292 1.901 3.331.94 4.451-.554l4.501-6.007c1.466 3.171 3.683 6.358 5.125 9.189.886 1.74 3.355-1.936 3.626-2.564 1.319-3.058 3.254-6.397 4.617-9.762 25.668-.089 24.716-31.104 23.714-50.688 1.844-.295 3.648-.646 5.5-1.345 1.889-.712 3.719-1.687 5.679-2.192 1.224 13.784 1.75 28.235-1.012 41.778zm72.458-73.951c-.48 6.86-1.413 13.703-2.943 20.41-1.236 5.419-2.668 11.424-5.943 16.02-6.397 8.977-18.168 13.402-28.418 16.093-8.711 2.287-17.852 3.564-26.888 3.37.319-8.015-.028-16.082-.688-24.031 3.273.262 6.617.945 9.646 1.464 2.488.426 5.373-5.473 2.472-5.969-4.416-.756-9.097-1.57-13.612-1.479-.961-.589-2.33-.365-3.443.369-4.38.935-8.381 3.386-12.942 3.904-.365.041-.7.1-1.044.153-.69-.36-1.613-.104-2.406.514-2.879.837-5.057 2.36-7.355 5.078-3.234 3.825-5.444 8.769-11.083 8.452-1.133-4.031-4.33-8.139-6.234-11.677-.356-.662-1.157-.345-1.618.005l-4.145 3.146-4.121-4.895c-.917-1.089-2.617-.311-3.422.427-1.182 1.083-2.591 2.144-3.87 3.279l-.694-.945c-.563-.766-1.277-.534-2.027-.21-1.449.627-3.178 1.159-4.691 1.953l-6.142-4.703c-.74-.566-1.646-.633-2.424-.043-2.238 1.699-4.769 3.155-6.705 4.966l-3.638-3.867c-.71-.754-1.733-.163-2.301.516-1.368 1.633-2.907 3.176-4.201 4.819l-4.753-3.213c-1.391-.94-3.405.677-4.017 1.836a38.904 38.904 0 0 1-1.025 1.788l-3.068-4.148c-.83-1.122-3.25 1.386-3.595 1.807-1.078 1.314-2.232 2.558-3.302 3.828l-3.918-7.437c-.578-1.098-2.251-.203-2.799.388-1.951 2.101-4.884 4.515-7.081 7.194l-4.736-4.648c-.618-.607-1.72-.024-2.28.317-1.088.663-2.487 1.324-3.796 2.102l-4.037-4.797c-.769-.913-2.565.276-3.139.795-1.807 1.635-3.839 3.119-5.529 4.778l-4.901-4.282c-1.34-1.171-3.386.701-4.082 1.662-.791 1.093-1.721 2.192-2.604 3.32l-4.618-5.121c-1.042-1.155-3.117.977-3.647 1.592-1.613 1.871-3.949 3.972-5.918 6.249l-3.408-7.593c-.613-1.366-2.517.566-2.935 1.018-1.562 1.691-3.616 3.476-5.402 5.426l-2.605-7.769c-.644-1.922-2.755-.971-3.667.217-1.475 1.921-3.252 3.85-4.809 5.895l-4.672-7.514c-1.114-1.792-3.509.039-4.349 1.127l-5.961 7.723c-.115.149-.239.3-.361.451l-4.36-7.727c-1.003-1.778-3.561-.121-4.239.992-1.521 2.496-3.445 5.079-5.165 7.728l-3.002-6.748c-.98-2.204-4.374-1.029-5.376.403-1.414 2.021-3.325 4.22-5.029 6.521l-4.862-9.366c-1.088-2.096-3.519-.909-4.504.559l-4.929 7.346a37.21 37.21 0 0 1-1.063 1.477l-3.126-8.429c-.779-2.099-2.848-.139-3.51.87-1.608 2.45-3.866 5.133-5.643 7.944a44519.14 44519.14 0 0 0-5.383-9.308c-.547-.946-1.934.301-2.238.78-.998 1.571-2.023 3.133-3.01 4.715-4.186-3.221-4.346-6.842-3.878-12.188.308-3.513.295-6.994-2.895-9.204-1.885-1.306-4.133-1.673-6.268-2.303-1.76-.519-2.241.972-3.876-1.666-.287-.463-.136-1.408-.276-1.925-1.213-4.464-.839-10.026-.992-14.62-.158-4.723-.281-9.515.143-14.229.416-4.617 1.88-9.019 2.229-13.673.678-9.027 4.078-16.846 8.208-24.793 4.839-9.311 10.676-18.277 18.107-25.738 9.324-9.364 20.55-14.332 33.096-18.006 14.258-4.176 29.074-6.072 43.92-5.955 9.668.076 19.209 1.594 28.862 1.738 18.378.274 36.793-.715 55.154-1.364 8.548-.302 17.098-.614 25.651-.774 6.988-.13 14.026.341 20.995-.159 13.258-.95 26.362-3.245 39.695-3.165 14.535.087 28.614 3.026 41.376 10.134 21.634 12.048 39.189 33.749 45.123 57.928 3.361 13.684 3.938 28.082 2.959 42.095zM55.366 85.085c-.156 3.861-1.487 7.869-2.265 11.639-1.594 7.722-2.585 15.195-3.406 23.046-.315 3.015-5.433 6.969-4.909 1.953.786-7.513 1.684-14.7 3.209-22.088l1.676-8.12c.186-.9.383-1.798.558-2.701.076-.392.111-.587.127-.649.056-1.61-.012-3.249-.131-4.894l-1.518 3.168c-1.019 2.126-1.991 4.283-3.059 6.384-.163.32-.27.514-.344.637-.006.09-.034.254-.105.549-1.998 8.322-4.379 16.57-6.566 24.845-.473 1.788-4.535 5.912-4.744 1.876l-1.726-33.267-.101.273c-.33.893-.626 1.808-.992 2.686-.161.386-.36.991-.401 1.049-.157.818-.251 1.66-.388 2.472l-4.224 24.949c-.497 2.935-5.749 6.914-4.909 1.953l4.329-25.572c1.122-6.63 4.129-12.906 6.451-19.194.574-1.554 4.527-6.071 4.744-1.876l1.494 28.796c.809-3.105 1.669-6.19 2.645-9.226 2.241-6.971 6.335-13.636 9.499-20.238.774-1.616 4.169-4.418 4.363-.92.227 4.099.858 8.371.693 12.47zm19.573 14.421c.052-.989.118-1.978.154-2.968.304-8.282-1.415-15.773-2.962-23.925-.538-2.833-3.824.942-4.158 1.995-2.752 8.68-5.541 17.348-8.256 26.04-.044.141-.081.283-.125.424-.759 1.036-1.183 2.407-.952 3.372-1.519 5.788-2.539 11.745-3.808 17.575-.918 4.218 3.826 1.146 4.385-1.42l2.756-12.664c.179-.823.349-1.651.522-2.477l7.801-.537c-.369 5.918-.973 11.828-1.458 17.733-.129 1.571 1.194 1.695 2.284 1.241 1.424-.592 2.124-2.743 2.236-4.113.478-5.816 1.055-11.632 1.434-17.458.458-1.029.576-2.131.147-2.818zm-4.823-10.398c.732 3.859.635 5.856.474 9.919l-6.499.447 4.999-15.769 1.026 5.403zm25.848-6.89c-2.278-3.889-6.118-6.932-9.258-10.154-2.178-2.235-4.745 3.084-4.82 4.715l-2.122 46.062c-.087.414-.095.782-.031 1.092.012 1.482.758 1.635 1.684 1.111.797-.141 1.745-.787 2.582-2.106l8.908-14.036c2.621-4.129 3.987-8.423 5.63-13.048.733-2.065 1.981-4.35 1.353-6.536-.684-2.378-2.678-4.969-3.926-7.1zm-3.528 18.576c-.371 1.044-.684 2.155-1.098 3.199-.017-.082-.688 1.119-.934 1.495a619.388 619.388 0 0 0-5.282 8.273l1.447-31.402c1.34 1.311 2.638 2.654 3.757 4.087 1.789 2.291 3.067 5.158 4.439 7.79l-2.329 6.558zm34.472-3.672c-.957 4.193-1.401 8.965-3.193 12.888-1.958 4.287-4.876 8.323-7.26 12.393-1.666 2.843-6.234 3.818-3.777-.376 2.224-3.796 4.139-8.557 6.965-11.92.006-.047.01-.083.018-.135.175-1.197.545-2.391.815-3.572l1.081-4.739-9.902.912c-1.225.113-.734-1.946-.584-2.465 1.338-4.638 2.367-9.51 4.048-14.032 1.434-3.856 4.258-7.395 6.407-10.895.498-.811 2.213-3.37 3.558-2.885 1.364.491.812 2.295.219 3.262l-3.722 6.061c-.624 1.016-1.367 2.028-1.907 3.096a5.942 5.942 0 0 1-.17.574c-1.186 3.627-2.172 7.334-3.197 11.018l9.804-.903c.859-.08.915 1.205.797 1.718zm18.02 26.013l-3.763-.622a1.44 1.44 0 0 1-.786-.774l-4.239-12.815a39.607 39.607 0 0 0-.626-1.731c-.447 4.986-.931 9.978-1.442 14.991-.309 3.026-5.271 6.178-4.82 1.762 1.577-15.463 2.93-30.717 3.563-46.243.126-3.094 5.002-6.218 4.82-1.762a542.273 542.273 0 0 1-.654 12.375c.603-.738 1.16-1.421 1.587-2.017l8.025-11.207c2.513-3.51 3.682 2.077 2.066 4.333L137.127 95.53l3.967 11.992c.874 2.642 1.887 5.278 2.633 7.959.098.353.352.814.454 1.081.663-.013 2.503.267 3.049.357 2.516.416.46 6.673-2.302 6.216zm14.992-40.516l.254 8.488 5.352.252c2.165.102-.622 6.004-2.657 5.908l-4.144-.195-4.569 3.634 5.082 15.076 2.884-3.123c1.131-1.224 2.921-1.024 3.727.356.935 1.599-.231 3.681-1.307 4.846l-5.527 5.985c-.943 1.021-3.192 1.234-3.727-.356l-7.179-21.296c-.552-1.638-.104-3.724 1.307-4.846l6.419-5.105-.269-8.993c-.056-1.857 1.263-4.151 2.978-4.929l13.496-6.117c1.437-.651 1.289 1.278 1.103 2.064-.334 1.414-1.471 3.025-2.811 3.632l-10.412 4.719zm24.099 37.251l-10.924 2.876c-1.438.379-2.7-.378-2.643-1.958.257-7.144-.526-15.155.989-22.136 1.757-8.099 4.915-16.102 7.336-24.034.937-3.069 6.505-4.486 5.233-.316-2.41 7.896-5.1 15.755-7.242 23.727a7.973 7.973 0 0 1-.138.478c-.032.471-.029.953-.041 1.417-.064 2.36-.17 4.72-.255 7.079l-.333 9.272 8.184-2.155c3.971-1.045 2.738 4.985-.166 5.75zm18.274-28.275l-6.567 1.877a2.516 2.516 0 0 1-.559.089l-3.524 2.748 4.226 13.703c.753 2.443 1.548 4.878 2.262 7.334.471-.131.971-.301 1.07-.334 1.242-.412 2.571-.644 3.842-.962 2.783-.697.049 5.302-1.856 5.779l-5.928 1.485c-.366.092-1.023.164-1.182-.349l-7.451-24.161c-.596-1.934 1.07-4.043 2.489-5.15l3.762-2.934-3.037-11.381c-.421-1.576 1.046-3.341 2.285-4.074l7.026-4.155c1.25-.739 2.807-.463 3.182 1.053.394 1.596-1.014 3.322-2.285 4.074l-4.114 2.433 2.273 8.517 4.604-1.316c3.94-1.126 2.291 4.921-.518 5.724zm21.769-14.342a133.057 133.057 0 0 1-4.555-.092c-1.039 7.147-2.131 14.292-3.036 21.455-.028.219-.045.349-.058.436-.002.446.011.894.017 1.338.034 2.326.039 4.653.058 6.98l.098 11.783c.031 3.729-6.361 6.754-6.401 2.073-.061-7.248-.756-14.772-.062-21.986.723-7.506 2.055-15.002 3.178-22.475a122.425 122.425 0 0 1-5.402-.59c-1.805-.242.102-6.848 2.412-6.538l4.174.561c.82.11 1.641.211 2.459.33.113.017.495.062.744.095a2.89 2.89 0 0 1 .563.052c2.448.115 4.936-.009 7.383-.004 2.407.005.417 6.586-1.572 6.582zm14.45-6.275c-.595.258-1.219.745-1.804 1.546-2.831 3.882-5.732 7.722-8.495 11.652-2.282 3.244-2.204 7.21-2.703 11.066-.552 4.262-1.74 8.893-1.581 13.201.168 4.55 1.41 9.277 2.095 13.783.196 1.289 1.478 1.584 2.535 1.136 2.054-.869 4.608-1.51 6.433-2.816 1.967-1.407 2.637-4.045 3.499-6.197 1.632-4.075 3.845-8.139 4.341-12.525.654-5.779 1.482-11.71 1.691-17.521.147-4.11-1.996-8.467-3.184-12.386-.465-1.534-1.653-1.584-2.827-.939zm-.792 27.272c-.201 2.08-.458 4.163-.603 6.248-.143 2.058.344.078-.546 2.024-1.356 2.964-2.5 6.051-3.674 9.109l-1.56.66c-.634-3.717-1.4-7.474-1.68-11.203a5.422 5.422 0 0 0-.012-.146 5.64 5.64 0 0 0 .014-.199c.049-.808.211-1.628.315-2.431l1.101-8.505c.304-2.349.862-4.801.928-7.17l.004-.06c.06-.085.117-.163.167-.224 1.689-2.04 3.243-4.217 4.776-6.407l.366 1.205c.353 1.163.679 2.339 1.06 3.494.113.344.529 1.995.558 1.553.259 3.825-.849 8.269-1.214 12.052zm36.761-21.581c.175 9.27 1.002 18.757.53 28.012-.201 3.949-1.749 8.027-2.776 11.838-1.35 5.013-5.211 5.154-9.74 6.424-1.5.42-2.791-.322-2.848-1.952l-.901-25.625c-.147-4.196-.727-8.621-.45-12.812.003-.04.002-.093.004-.137-.171-.148-.515-.62-.99-1.021-.13-.11-.251-.235-.378-.349a3356.234 3356.234 0 0 0-4.699 38.893c-.392 3.411-5.919 4.839-5.414.442 1.757-15.293 3.59-30.563 5.567-45.83.29-2.239 3.246-4.451 5.092-2.553 2.224 2.287 5.87 4.705 6.357 7.945.583 3.876.285 8.098.422 12.01l.854 24.307 2.032-.569c.697-2.724 1.391-5.448 2.113-8.165.102-.384.165-.568.204-.652-.015-.094-.026-.296-.02-.709.024-1.588-.06-3.185-.09-4.773l-.43-22.717c-.059-3.134 5.482-6.188 5.561-2.007z"/></svg>