<svg version="1.2" baseProfile="tiny" xmlns="http://www.w3.org/2000/svg" viewBox="0 0 100 100"><path d="M97 37.503c0-17.645-14.355-32-32-32H50c-25.916 0-47 21.084-47 47v15a2 2 0 0 0 2 2h8V92.5a2 2 0 0 0 2 2h35c9.374 0 17-7.626 17-17v-8.066c16.716-1.037 30-14.959 30-31.931zM50 90.5H17v-11h4.75V85a2 2 0 0 0 4 0v-5.5h4.75V85a2 2 0 0 0 4 0v-5.5h4.75V85a2 2 0 0 0 4 0v-5.5H50a2 2 0 0 0 2-2v-7.997h11V77.5c0 7.168-5.832 13-13 13zm15-24.997H50a2 2 0 0 0-2 2V75.5h-4.75V70a2 2 0 0 0-4 0v5.5H34.5V70a2 2 0 0 0-4 0v5.5h-4.75V70a2 2 0 0 0-4 0v5.5H17v-7.997a2 2 0 0 0-2-2H7v-13c0-23.71 19.29-43 43-43h15c15.439 0 28 12.561 28 28s-12.561 28-28 28zM78.485 48.16a2 2 0 0 1 0 2.828A11.919 11.919 0 0 1 70 54.503a11.919 11.919 0 0 1-8.485-3.515A11.92 11.92 0 0 1 58 42.503v-15a2 2 0 0 1 4 0v15c0 2.138.832 4.146 2.343 5.657s3.52 2.343 5.657 2.343a7.948 7.948 0 0 0 5.657-2.343 2 2 0 0 1 2.828 0zM34.5 42.503v12.5a2 2 0 0 1-4 0v-12.5a2 2 0 0 1 4 0zm-12.38.377c.56.559.88 1.33.88 2.12s-.32 1.56-.88 2.12S20.79 48 20 48s-1.56-.32-2.12-.88c-.56-.551-.88-1.33-.88-2.12s.32-1.561.88-2.12c1.11-1.11 3.13-1.12 4.24 0zm25 0c.56.559.88 1.33.88 2.12s-.32 1.56-.88 2.12S45.79 48 45 48s-1.56-.32-2.12-.88c-.56-.551-.88-1.33-.88-2.12s.32-1.561.88-2.12c1.11-1.11 3.13-1.11 4.24 0z"/></svg>