<svg version="1.2" baseProfile="tiny" xmlns="http://www.w3.org/2000/svg" viewBox="0 0 100 100"><path d="M67.01 19.969a2 2 0 0 1-2 2A20.462 20.462 0 0 0 51.335 27.2c-.38.341-.857.511-1.335.511s-.955-.17-1.335-.511a20.462 20.462 0 0 0-13.675-5.231 2 2 0 0 1 0-4A24.448 24.448 0 0 1 50 23.108a24.454 24.454 0 0 1 15.01-5.139 2 2 0 0 1 2 2zM87.013 20v10c0 5.78-2.905 10.888-7.326 13.961.088.08.179.155.263.239A6.949 6.949 0 0 1 82 49.148v38.386c0 .012-.003.023-.003.034C81.959 92.775 77.715 97 72.5 97c-5.238 0-9.5-4.262-9.5-9.5V69.99c0-2.237-.568-4.344-1.568-6.184A5.508 5.508 0 0 0 57 69.2v10.818c0 3.859-3.141 7-7 7s-7-3.141-7-7V69.2a5.508 5.508 0 0 0-4.432-5.394c-1 1.84-1.568 3.947-1.568 6.184V87.5c0 5.238-4.262 9.5-9.5 9.5-5.215 0-9.459-4.225-9.497-9.431 0-.012-.003-.023-.003-.034V49.148c0-1.871.729-3.629 2.052-4.95.084-.084.174-.158.261-.237-4.421-3.073-7.326-8.181-7.326-13.961V20c0-9.374 7.626-17 17-17 .012 0 .022.003.034.003 3.496.002 6.913.597 10.176 1.754.055.016.112.025.166.046C43.432 6.003 46.674 6.61 50 6.61s6.568-.607 9.637-1.807c.055-.021.111-.03.167-.046a30.388 30.388 0 0 1 10.175-1.754c.011 0 .022-.003.034-.003 9.374 0 17 7.626 17 17zM58.801 60.45c-2.318-2.14-5.405-3.46-8.801-3.46s-6.483 1.32-8.801 3.46C44.605 61.896 47 65.273 47 69.2v10.818c0 1.654 1.346 3 3 3s3-1.346 3-3V69.2c0-3.927 2.395-7.304 5.801-8.75zM83.013 30V20c0-7.164-5.826-12.993-12.989-12.999L70 7.003c-3.324 0-6.566.607-9.637 1.807-.06.023-.121.034-.181.052C56.92 10.017 53.501 10.61 50 10.61s-6.92-.593-10.182-1.749c-.06-.017-.121-.029-.181-.052A26.386 26.386 0 0 0 30 7.003l-.024-.002C22.813 7.007 16.987 12.836 16.987 20v10c0 7.168 5.832 13 13 13a2 2 0 0 1 0 4c-1.822 0-3.575-.295-5.222-.829A2.977 2.977 0 0 0 22 49.148V87.5c0 3.032 2.468 5.5 5.5 5.5s5.5-2.468 5.5-5.5V69.99c0-3.408 1.018-6.579 2.752-9.243.041-.074.082-.147.131-.215C38.937 55.988 44.124 52.99 50 52.99s11.063 2.997 14.117 7.542c.049.068.09.141.131.215A16.888 16.888 0 0 1 67 69.99V87.5c0 3.032 2.468 5.5 5.5 5.5s5.5-2.468 5.5-5.5V49.148a2.975 2.975 0 0 0-2.765-2.977c-1.647.533-3.4.829-5.222.829a2 2 0 0 1 0-4c7.168 0 13-5.832 13-13z"/></svg>