<svg xmlns="http://www.w3.org/2000/svg"><symbol id="symbol-eye" viewBox="0 0 100 100"><path d="M87.5 33h-1.01c-.693 0-1.391-.261-1.962-.736A62.029 62.029 0 0 0 45 18c-12.373 0-24.322 3.64-34.555 10.525C5.783 31.662 3 36.921 3 42.593v14.814c0 5.672 2.783 10.931 7.445 14.067C20.678 78.36 32.627 82 45 82a62.029 62.029 0 0 0 39.528-14.264C85.1 67.261 85.797 67 86.49 67h1.01c5.238 0 9.5-4.262 9.5-9.5v-15c0-5.238-4.262-9.5-9.5-9.5zM51.557 56.745l-1.567-5.846a12 12 0 0 0 1.952-1.129l4.28 4.28a17.995 17.995 0 0 1-4.665 2.695zM33.778 54.05l4.28-4.28c.611.435 1.263.813 1.952 1.129l-1.567 5.846a17.995 17.995 0 0 1-4.665-2.695zm-5.523-7.493l5.846-1.566c.316.688.694 1.34 1.129 1.951l-4.28 4.28c-1.12-1.4-2.03-2.97-2.695-4.665zm4.802-5.427l-5.833 1.563A17.985 17.985 0 0 1 27 40c0-.902.074-1.802.211-2.696l5.846 1.566c-.035.372-.057.749-.057 1.13s.022.758.057 1.13zM43.87 51.943c.373.035.749.057 1.13.057s.757-.022 1.13-.057l1.563 5.833c-.881.133-1.776.224-2.693.224s-1.812-.091-2.693-.224l1.563-5.833zM63 40c0 .917-.091 1.812-.224 2.693l-5.833-1.563c.035-.372.057-.749.057-1.13s-.022-.758-.057-1.13l5.846-1.566c.137.894.211 1.794.211 2.696zm-3.95 11.222l-4.28-4.28a11.99 11.99 0 0 0 1.129-1.951l5.846 1.566a17.967 17.967 0 0 1-2.695 4.665zm-3.151-16.213a11.974 11.974 0 0 0-1.181-2.021 47.34 47.34 0 0 1 4.449 1.146l-3.268.875zM53 40c0 4.411-3.589 8-8 8s-8-3.589-8-8 3.589-8 8-8 8 3.589 8 8zm-18.899-4.991l-3.292-.882a47.492 47.492 0 0 1 4.471-1.136c-.456.63-.851 1.305-1.179 2.018zM23.748 45.682l.002.011.004.008a21.998 21.998 0 0 0 5.604 9.749c.03.034.053.072.086.105.033.033.07.056.105.086a21.997 21.997 0 0 0 9.741 5.602c.006.002.01.005.016.006l.01.001a21.893 21.893 0 0 0 11.368.001l.01-.001.016-.006a22 22 0 0 0 9.741-5.602c.034-.03.072-.053.105-.086.033-.033.056-.071.086-.105a22.007 22.007 0 0 0 5.604-9.749l.004-.008.002-.011A21.97 21.97 0 0 0 67 40c0-.924-.076-1.844-.193-2.761a48.177 48.177 0 0 1 6.403 3.945c2.977 2.169 6.46 3.316 10.074 3.316h3.901c3.116 0 5.724 2.391 5.812 5.33a5.46 5.46 0 0 1-1.55 4A5.456 5.456 0 0 1 87.5 55.5h-4.216c-3.614 0-7.098 1.146-10.074 3.316C64.966 64.824 55.211 68 45 68c-14.731 0-28.301-6.54-37.47-18a47.903 47.903 0 0 1 15.667-12.791A21.72 21.72 0 0 0 23 40c0 1.965.263 3.869.748 5.682zm-11.07-13.838C22.249 25.404 33.426 22 45 22a58.018 58.018 0 0 1 36.974 13.342C83.262 36.411 84.865 37 86.49 37h1.01a5.503 5.503 0 0 1 5.494 5.383 9.942 9.942 0 0 0-5.809-1.883h-3.901c-2.762 0-5.431-.881-7.719-2.548C66.633 31.441 56.062 28 45 28c-14.628 0-28.19 5.963-38 16.515v-1.922c0-4.339 2.123-8.357 5.678-10.749zM87.5 63h-1.01c-1.625 0-3.229.589-4.517 1.658A58.013 58.013 0 0 1 45 78c-11.574 0-22.751-3.404-32.322-9.844C9.123 65.764 7 61.746 7 57.407v-1.922C16.81 66.037 30.372 72 45 72c11.062 0 21.633-3.441 30.565-9.952 2.288-1.667 4.957-2.548 7.719-2.548H87.5c2 0 3.895-.616 5.487-1.75C92.855 60.667 90.448 63 87.5 63zm-9.62-10.88c-.561-.56-.88-1.33-.88-2.12s.319-1.56.88-2.12c1.12-1.12 3.12-1.12 4.24 0 .56.56.88 1.33.88 2.12s-.32 1.56-.88 2.12S80.79 53 80 53s-1.561-.32-2.12-.88z"/></symbol><symbol id="symbol-eyeball" viewBox="0 0 100 100"><path d="M50 3C24.433 3 3.583 23.524 3.026 48.96c-.013.275-.018.552-.021.829 0 .071-.005.14-.005.211l.001.051c.001.29.01.581.022.872C3.519 76.413 24.394 97 50 97c25.916 0 47-21.084 47-47S75.916 3 50 3zM18.44 33.245l1.568 5.853a11.95 11.95 0 0 0-1.956 1.126l-4.28-4.28a17.844 17.844 0 0 1 4.668-2.699zm17.781 2.706l-4.27 4.27a12.145 12.145 0 0 0-.951-.613c-.329-.19-.665-.361-1.006-.517l1.562-5.831a18.085 18.085 0 0 1 4.665 2.691zm5.528 7.491l-5.847 1.567a11.95 11.95 0 0 0-1.126-1.956l4.284-4.284a17.812 17.812 0 0 1 2.689 4.673zM31.56 66.755l-1.568-5.853a11.95 11.95 0 0 0 1.956-1.126l4.28 4.28a17.844 17.844 0 0 1-4.668 2.699zm-17.776-2.711l4.264-4.264c.306.217.622.423.951.613.329.19.671.343 1.011.499l-1.565 5.843a18.166 18.166 0 0 1-4.661-2.691zm1.436-20.995c-.217.306-.423.622-.613.951-.19.329-.361.665-.517 1.006l-5.825-1.561c.66-1.68 1.567-3.25 2.691-4.661l4.264 4.265zm7.709-.777a7.917 7.917 0 0 1 4.121-.008l.021.008.014.002c.662.18 1.306.445 1.916.797a7.948 7.948 0 0 1 3.728 4.857c.553 2.064.269 4.22-.799 6.071s-2.793 3.174-4.857 3.728a7.941 7.941 0 0 1-6.071-.799 7.948 7.948 0 0 1-3.728-4.857c-.553-2.064-.269-4.22.799-6.071s2.792-3.174 4.856-3.728zm19.861 5.031a17.816 17.816 0 0 1-.004 5.392l-5.847-1.566c.07-.748.071-1.502-.002-2.258l5.853-1.568zM10.944 61.228a17.844 17.844 0 0 1-2.699-4.668l5.853-1.568c.314.69.692 1.343 1.126 1.956l-4.28 4.28zm2.119-10.1L7.21 52.697a17.961 17.961 0 0 1-.196-3.254l.006-.243c.029-.638.097-1.269.193-1.895l5.847 1.566c-.07.748-.07 1.502.003 2.257zm10.81 10.805c.368.035.737.073 1.108.073.381 0 .764-.039 1.146-.076l1.57 5.86a17.849 17.849 0 0 1-5.392-.004l1.568-5.853zm15.171-.717l-4.264-4.264c.217-.306.423-.622.613-.951.19-.329.361-.665.517-1.006l5.825 1.561a18.148 18.148 0 0 1-2.691 4.66zM26.129 38.06a11.912 11.912 0 0 0-2.258.002l-1.568-5.852a17.926 17.926 0 0 1 2.692-.213c.911 0 1.812.078 2.7.214l-1.566 5.849zM50 93c-17.957 0-33.37-11.068-39.797-26.738a22.161 22.161 0 0 0 8.907 4.914c.065.025.127.056.196.074.034.009.067.006.101.013 1.808.479 3.686.739 5.598.739 1.879 0 3.79-.243 5.689-.752a21.852 21.852 0 0 0 9.778-5.625c.027-.025.058-.043.085-.069.026-.026.044-.056.068-.083a22.162 22.162 0 0 0 5.6-9.722c.006-.021.021-.037.026-.058.01-.035.01-.071.017-.106a21.862 21.862 0 0 0-.017-11.282 21.866 21.866 0 0 0-5.628-9.782c-.023-.026-.041-.055-.066-.08-.024-.024-.053-.041-.078-.064a22.16 22.16 0 0 0-9.699-5.598c-.029-.009-.055-.024-.085-.032-.031-.008-.062-.009-.094-.016a21.843 21.843 0 0 0-11.294.016 21.867 21.867 0 0 0-9.1 4.979C16.635 18.064 32.046 7 50 7c23.71 0 43 19.29 43 43S73.71 93 50 93zm38-43c0 .79-.32 1.56-.88 2.12S85.79 53 85 53s-1.56-.32-2.12-.88S82 50.79 82 50s.32-1.56.88-2.12c1.12-1.12 3.12-1.12 4.24 0 .56.56.88 1.33.88 2.12z"/></symbol><symbol id="symbol-face" viewBox="0 0 100 100"><path d="M55 63c-1.958 0-3.728.81-5 2.11A6.977 6.977 0 0 0 45 63c-3.86 0-7 3.14-7 7 0 3.991 5.159 7 12 7s12-3.009 12-7c0-3.86-3.14-7-7-7zm-5 10c-4.963 0-8-1.942-8-3 0-1.654 1.346-3 3-3s3 1.346 3 3a2 2 0 0 0 4 0c0-1.654 1.346-3 3-3s3 1.346 3 3c0 1.058-3.037 3-8 3zm24.62-20.12c.56.56.88 1.33.88 2.12s-.32 1.56-.88 2.12-1.33.88-2.12.88-1.56-.32-2.12-.88-.88-1.33-.88-2.12.32-1.56.88-2.12c1.12-1.12 3.13-1.12 4.24 0zm-45 0c.56.56.88 1.33.88 2.12s-.32 1.56-.88 2.12-1.33.88-2.12.88-1.56-.32-2.12-.88-.88-1.33-.88-2.12.32-1.56.88-2.12c1.11-1.12 3.13-1.12 4.24 0zM77 30a2 2 0 0 1-2 2H55.275l6.623 19.868c.012.036.015.072.024.108.018.067.035.134.046.204.011.07.017.14.021.21.002.038.011.073.011.11 0 .042-.005.082-.006.123l-.003.051C61.897 56.453 58.801 59.5 55 59.5a6.977 6.977 0 0 1-5-2.11 6.977 6.977 0 0 1-5 2.11c-3.86 0-7-3.14-7-7a2 2 0 0 1 4 0c0 1.654 1.346 3 3 3s3-1.346 3-3a2 2 0 0 1 4 0c0 1.654 1.346 3 3 3a2.994 2.994 0 0 0 2.975-2.751l-7.372-22.117c-.012-.036-.015-.072-.024-.108a1.948 1.948 0 0 1-.046-.204 2.133 2.133 0 0 1-.021-.21c-.003-.038-.012-.073-.012-.11 0-.025.006-.048.007-.072.003-.073.011-.144.022-.216.009-.061.018-.122.032-.181.015-.063.036-.124.058-.185.022-.062.043-.124.071-.183.026-.057.057-.11.089-.164.033-.057.065-.113.104-.166.038-.052.08-.1.122-.148.042-.047.083-.095.129-.138.047-.044.098-.084.15-.124.052-.04.103-.079.159-.114a2.268 2.268 0 0 1 .359-.177c.023-.009.043-.022.067-.03.036-.012.072-.015.108-.024.067-.018.134-.035.204-.046.07-.011.139-.017.209-.021.036-.002.072-.011.11-.011H75a2 2 0 0 1 2 2zM50 3C29.598 3 13 19.598 13 40v15.31c0 21.146 15.8 39.062 36.752 41.675.079.01.158.014.236.014l.009.001h.004l.009-.001c.078-.001.157-.005.236-.014C71.2 94.372 87 76.456 87 55.31V40C87 19.598 70.402 3 50 3zm0 89.978c-18.83-2.474-33-18.62-33-37.669V40C17 21.804 31.804 7 50 7s33 14.804 33 33v15.31c0 19.048-14.17 35.195-33 37.668zM39.5 37.5c0 3.86-3.14 7-7 7s-7-3.14-7-7a2 2 0 0 1 4 0c0 1.654 1.346 3 3 3s3-1.346 3-3a2 2 0 0 1 4 0zm28 7c-3.86 0-7-3.14-7-7a2 2 0 0 1 4 0c0 1.654 1.346 3 3 3s3-1.346 3-3a2 2 0 0 1 4 0c0 3.86-3.14 7-7 7zm-13 38a2 2 0 0 1-2 2h-5a2 2 0 0 1 0-4h5a2 2 0 0 1 2 2z"/></symbol><symbol id="symbol-foot" viewBox="0 0 100 100"><path d="M90.271 36.437a21.918 21.918 0 0 0-4.714-6.993L62.627 6.515A11.917 11.917 0 0 0 54.142 3a11.919 11.919 0 0 0-8.485 3.515L35.05 17.122a11.919 11.919 0 0 0-3.515 8.485 11.92 11.92 0 0 0 3.515 8.486l1.706 1.705a7.948 7.948 0 0 1 2.343 5.657 7.948 7.948 0 0 1-2.343 5.657L5.551 78.317l-.006.007a2.06 2.06 0 0 0-.206.252c-.014.02-.033.038-.046.058a2.128 2.128 0 0 0-.218.468c-.027.081-.057.162-.073.247l-.001.011a2.014 2.014 0 0 0-.015.586c.006.057.006.114.017.17.008.039.024.077.034.116.023.09.046.18.082.266l.004.012c1.359 3.215 3.306 6.103 5.786 8.582s5.367 4.426 8.582 5.785C22.82 96.286 26.356 97 30 97s7.18-.714 10.51-2.123c3.215-1.359 6.103-3.306 8.582-5.786s4.426-5.367 5.786-8.582l.004-.013c.001-.003.004-.005.005-.009l.609-1.491a13.086 13.086 0 0 1 7.06-7.096l15.995-6.625.005-.003.009-.003a21.919 21.919 0 0 0 6.992-4.714 21.914 21.914 0 0 0 4.714-6.992C91.418 50.851 92 47.969 92 45s-.582-5.851-1.729-8.563zM59.799 9.343c1.511 1.511 2.343 3.521 2.343 5.657s-.832 4.146-2.343 5.657l-.002.003-10.605 10.604a7.948 7.948 0 0 1-5.657 2.343 7.951 7.951 0 0 1-5.652-2.338l-.005-.005-.002-.001a7.947 7.947 0 0 1-2.341-5.655c0-2.137.832-4.146 2.343-5.657L48.485 9.343A7.95 7.95 0 0 1 54.142 7c2.137 0 4.146.832 5.657 2.343zm26.787 42.663c-.906 2.142-2.204 4.067-3.858 5.722s-3.58 2.952-5.722 3.858l-.002.001-15.979 6.618a17.107 17.107 0 0 0-9.232 9.279l-.602 1.472a22.916 22.916 0 0 1-4.927 7.307 22.935 22.935 0 0 1-7.312 4.93c-3.32 1.404-6.947 1.962-10.522 1.721l7.785-7.785a2 2 0 1 0-2.828-2.828l-9.778 9.778a22.386 22.386 0 0 1-2.56-.887c-.348-.147-.677-.325-1.015-.488l8.711-8.711a2 2 0 1 0-2.828-2.828l-9.423 9.424a23.157 23.157 0 0 1-2.687-2.263l9.269-9.268a2 2 0 1 0-2.828-2.828l-9.024 9.024a22.787 22.787 0 0 1-1.841-3.11l30.205-30.205c3.345-3.345 4.285-8.186 2.847-12.387a11.919 11.919 0 0 0 9.589-3.461l10.605-10.604.003-.002a11.903 11.903 0 0 0 3.482-7.832l16.618 16.618a17.938 17.938 0 0 1 3.858 5.723C87.524 40.212 88 42.569 88 45s-.476 4.788-1.414 7.006zm-9.868-13.723C78.512 40.076 79.5 42.462 79.5 45s-.988 4.924-2.783 6.718c-.391.39-.902.585-1.414.585a2 2 0 0 1-1.415-3.415C74.928 47.851 75.5 46.469 75.5 45s-.572-2.851-1.611-3.889A5.462 5.462 0 0 0 70 39.5a2 2 0 0 1 0-4c2.538 0 4.924.988 6.718 2.783zM52.02 16.79c-.56-.56-.88-1.33-.88-2.12s.32-1.57.88-2.12c1.12-1.12 3.13-1.12 4.24 0 .56.55.88 1.33.88 2.12s-.32 1.56-.88 2.12-1.33.88-2.12.88-1.56-.32-2.12-.88zm-6.36 6.36c.56.56.88 1.33.88 2.12s-.32 1.56-.88 2.13c-.56.55-1.33.87-2.12.87-.8 0-1.57-.32-2.13-.87-.55-.56-.87-1.34-.87-2.13s.32-1.56.87-2.12c1.12-1.12 3.13-1.12 4.25 0z"/></symbol><symbol id="symbol-skull" viewBox="0 0 100 100"><path d="M97 37.503c0-17.645-14.355-32-32-32H50c-25.916 0-47 21.084-47 47v15a2 2 0 0 0 2 2h8V92.5a2 2 0 0 0 2 2h35c9.374 0 17-7.626 17-17v-8.066c16.716-1.037 30-14.959 30-31.931zM50 90.5H17v-11h4.75V85a2 2 0 0 0 4 0v-5.5h4.75V85a2 2 0 0 0 4 0v-5.5h4.75V85a2 2 0 0 0 4 0v-5.5H50a2 2 0 0 0 2-2v-7.997h11V77.5c0 7.168-5.832 13-13 13zm15-24.997H50a2 2 0 0 0-2 2V75.5h-4.75V70a2 2 0 0 0-4 0v5.5H34.5V70a2 2 0 0 0-4 0v5.5h-4.75V70a2 2 0 0 0-4 0v5.5H17v-7.997a2 2 0 0 0-2-2H7v-13c0-23.71 19.29-43 43-43h15c15.439 0 28 12.561 28 28s-12.561 28-28 28zM78.485 48.16a2 2 0 0 1 0 2.828A11.919 11.919 0 0 1 70 54.503a11.919 11.919 0 0 1-8.485-3.515A11.92 11.92 0 0 1 58 42.503v-15a2 2 0 0 1 4 0v15c0 2.138.832 4.146 2.343 5.657s3.52 2.343 5.657 2.343a7.948 7.948 0 0 0 5.657-2.343 2 2 0 0 1 2.828 0zM34.5 42.503v12.5a2 2 0 0 1-4 0v-12.5a2 2 0 0 1 4 0zm-12.38.377c.56.559.88 1.33.88 2.12s-.32 1.56-.88 2.12S20.79 48 20 48s-1.56-.32-2.12-.88c-.56-.551-.88-1.33-.88-2.12s.32-1.561.88-2.12c1.11-1.11 3.13-1.12 4.24 0zm25 0c.56.559.88 1.33.88 2.12s-.32 1.56-.88 2.12S45.79 48 45 48s-1.56-.32-2.12-.88c-.56-.551-.88-1.33-.88-2.12s.32-1.561.88-2.12c1.11-1.11 3.13-1.11 4.24 0z"/></symbol><symbol id="symbol-tooth" viewBox="0 0 100 100"><path d="M67.01 19.969a2 2 0 0 1-2 2A20.462 20.462 0 0 0 51.335 27.2c-.38.341-.857.511-1.335.511s-.955-.17-1.335-.511a20.462 20.462 0 0 0-13.675-5.231 2 2 0 0 1 0-4A24.448 24.448 0 0 1 50 23.108a24.454 24.454 0 0 1 15.01-5.139 2 2 0 0 1 2 2zM87.013 20v10c0 5.78-2.905 10.888-7.326 13.961.088.08.179.155.263.239A6.949 6.949 0 0 1 82 49.148v38.386c0 .012-.003.023-.003.034C81.959 92.775 77.715 97 72.5 97c-5.238 0-9.5-4.262-9.5-9.5V69.99c0-2.237-.568-4.344-1.568-6.184A5.508 5.508 0 0 0 57 69.2v10.818c0 3.859-3.141 7-7 7s-7-3.141-7-7V69.2a5.508 5.508 0 0 0-4.432-5.394c-1 1.84-1.568 3.947-1.568 6.184V87.5c0 5.238-4.262 9.5-9.5 9.5-5.215 0-9.459-4.225-9.497-9.431 0-.012-.003-.023-.003-.034V49.148c0-1.871.729-3.629 2.052-4.95.084-.084.174-.158.261-.237-4.421-3.073-7.326-8.181-7.326-13.961V20c0-9.374 7.626-17 17-17 .012 0 .022.003.034.003 3.496.002 6.913.597 10.176 1.754.055.016.112.025.166.046C43.432 6.003 46.674 6.61 50 6.61s6.568-.607 9.637-1.807c.055-.021.111-.03.167-.046a30.388 30.388 0 0 1 10.175-1.754c.011 0 .022-.003.034-.003 9.374 0 17 7.626 17 17zM58.801 60.45c-2.318-2.14-5.405-3.46-8.801-3.46s-6.483 1.32-8.801 3.46C44.605 61.896 47 65.273 47 69.2v10.818c0 1.654 1.346 3 3 3s3-1.346 3-3V69.2c0-3.927 2.395-7.304 5.801-8.75zM83.013 30V20c0-7.164-5.826-12.993-12.989-12.999L70 7.003c-3.324 0-6.566.607-9.637 1.807-.06.023-.121.034-.181.052C56.92 10.017 53.501 10.61 50 10.61s-6.92-.593-10.182-1.749c-.06-.017-.121-.029-.181-.052A26.386 26.386 0 0 0 30 7.003l-.024-.002C22.813 7.007 16.987 12.836 16.987 20v10c0 7.168 5.832 13 13 13a2 2 0 0 1 0 4c-1.822 0-3.575-.295-5.222-.829A2.977 2.977 0 0 0 22 49.148V87.5c0 3.032 2.468 5.5 5.5 5.5s5.5-2.468 5.5-5.5V69.99c0-3.408 1.018-6.579 2.752-9.243.041-.074.082-.147.131-.215C38.937 55.988 44.124 52.99 50 52.99s11.063 2.997 14.117 7.542c.049.068.09.141.131.215A16.888 16.888 0 0 1 67 69.99V87.5c0 3.032 2.468 5.5 5.5 5.5s5.5-2.468 5.5-5.5V49.148a2.975 2.975 0 0 0-2.765-2.977c-1.647.533-3.4.829-5.222.829a2 2 0 0 1 0-4c7.168 0 13-5.832 13-13z"/></symbol></svg>