<svg xmlns="http://www.w3.org/2000/svg"><symbol id="symbol-sonar" viewBox="0 0 15 15"><path fill-rule="evenodd" clip-rule="evenodd" d="M14.5 4.9c-.8-2.1-2.4-3.7-4.5-4.5C9.3.2 8.4 0 7.5 0 3.4 0 0 3.4 0 7.5S3.4 15 7.5 15 15 11.6 15 7.5c0-.9-.2-1.8-.5-2.6zm-4 2.6c0 1.7-1.3 3-3 3s-3-1.3-3-3 1.3-3 3-3c.4 0 .7.1 1 .2L7.7 7H7v1h1v-.7l2.3-.8c.1.3.2.6.2 1zm-3 6.1c-3.6 0-6.1-2.6-6.1-6.1 0-3.6 2.6-6.1 6.1-6.1.8 0 1.5.1 2.1.3l-.9 2.5c-.4-.1-.8-.2-1.2-.2C5.6 4 4 5.6 4 7.5S5.6 11 7.5 11 11 9.4 11 7.5c0-.4-.1-.8-.2-1.2l2.5-.9c.2.7.3 1.4.3 2.1 0 3.6-2.5 6.1-6.1 6.1z"/></symbol></svg>